Coordinates
version=1
nRows=11
nColumns=46
inDegrees=yes

Units are S.I. units (second, meters, Newtons, ...)
Angles are in degrees.

endheader
time	pelvis_tilt	pelvis_list	pelvis_rotation	pelvis_tx	pelvis_ty	pelvis_tz	bb_angle	bb_tx	bb_ty	bb_tz	hip_flexion_r	hip_adduction_r	hip_rotation_r	knee_angle_r	knee_angle_r_beta	ankle_angle_r	subtalar_angle_r	mtp_angle_r	crank_angle_r	hip_flexion_l	hip_adduction_l	hip_rotation_l	knee_angle_l	knee_angle_l_beta	ankle_angle_l	subtalar_angle_l	mtp_angle_l	crank_angle_l	lumbar_extension	lumbar_bending	lumbar_rotation	arm_flex_r	arm_add_r	arm_rot_r	elbow_flex_r	pro_sup_r	wrist_flex_r	wrist_dev_r	arm_flex_l	arm_add_l	arm_rot_l	elbow_flex_l	pro_sup_l	wrist_flex_l	wrist_dev_l
      0.00500000	    -12.59322002	     -1.57021223	     -0.65096729	      0.05291153	      1.15106430	     -0.22872604	      0.00000000	      0.50000000	      0.00000000	      0.25000000	     78.49524307	      0.26768083	      4.01788482	     83.19132756	      1.45196258	      4.97534115	     -9.05189541	      0.00000000	      0.00000000	     48.65803576	     -6.36785802	      1.47793198	     71.40364801	      1.24622876	      4.06826143	     -9.47922603	      0.00000000	      0.00000000	    -60.63377958	      1.25069048	      0.84840361	     89.68601509	     -7.77908224	     32.20477925	     48.68146455	     24.39153165	      0.00000000	      0.00000000	     89.60922338	     -9.66798442	     30.50819748	     48.12585731	     25.02232540	      0.00000000	      0.00000000
      0.01000000	    -12.60510781	     -1.55166268	     -0.64290013	      0.05290632	      1.15112247	     -0.22874580	      0.00000000	      0.50000000	      0.00000000	      0.25000000	     78.50941383	      0.23868052	      4.01706128	     83.17930960	      1.45175282	      4.92433199	     -9.05680766	      0.00000000	      0.00000000	     48.65838124	     -6.35594578	      1.45159681	     71.38242593	      1.24585836	      4.07400743	     -9.47532682	      0.00000000	      0.00000000	    -60.62088705	      1.25165718	      0.83241193	     89.68729970	     -7.70179546	     31.89580637	     48.08950376	     26.94253982	      0.00000000	      0.00000000	     89.61080579	     -9.58848499	     30.14959731	     47.51567572	     27.44655682	      0.00000000	      0.00000000
      0.01500000	    -12.49546653	     -1.58498630	     -0.62621249	      0.05289102	      1.15132128	     -0.22876713	      0.00000000	      0.50000000	      0.00000000	      0.25000000	     78.37896468	      0.22758843	      3.96379516	     83.16669660	      1.45153268	      4.90933662	     -9.13748004	      0.00000000	      0.00000000	     48.53409082	     -6.36982080	      1.48445108	     71.37311254	      1.24569581	      4.10041044	     -9.49074881	      0.00000000	      0.00000000	    -60.78630762	      1.28455105	      0.84530598	     89.68792630	     -7.67548635	     31.67287901	     48.10303430	     27.96796386	      0.00000000	      0.00000000	     89.60712586	     -9.60510415	     29.89187596	     47.59453312	     28.47451277	      0.00000000	      0.00000000
      0.02000000	    -12.59431005	     -1.71489252	     -0.63148442	      0.05272529	      1.15094272	     -0.22855585	      0.00000000	      0.50000000	      0.00000000	      0.25000000	     78.47826909	      0.32505626	      3.87609830	     83.14013617	      1.45106912	      4.94479307	     -9.12844004	      0.00000000	      0.00000000	     48.68396062	     -6.36802238	      1.81393311	     71.44478799	      1.24694678	      4.17646722	     -9.56348608	      0.00000000	      0.00000000	    -60.68765502	      1.53217045	      0.85012537	     89.69326452	     -7.44106967	     31.78103994	     48.10017308	     28.53907318	      0.00000000	      0.00000000	     89.60002225	     -9.99961916	     29.95379266	     47.48839056	     29.05498656	      0.00000000	      0.00000000
      0.02500000	    -12.47086065	     -1.73878680	     -0.84450447	      0.05304297	      1.15063166	     -0.22801268	      0.00000000	      0.50000000	      0.00000000	      0.25000000	     78.37334760	      0.57173471	      3.89021808	     83.17535695	      1.45168384	      5.01920452	     -8.99104878	      0.00000000	      0.00000000	     48.57115804	     -6.41453985	      1.88264957	     71.38379712	      1.24588229	      4.49008544	     -6.80368425	      0.00000000	      0.00000000	    -60.78741989	      1.42558489	      0.83735321	     89.69434973	     -7.24041639	     31.94924902	     48.06482030	     28.49089733	      0.00000000	      0.00000000	     89.59864074	    -10.35129883	     30.27106283	     47.51790689	     29.11070089	      0.00000000	      0.00000000
      0.03000000	    -12.43811254	     -1.95729021	     -1.00904194	      0.05359039	      1.15014456	     -0.22631932	      0.00000000	      0.50000000	      0.00000000	      0.25000000	     78.46716211	      0.80770054	      3.61208257	     83.31385722	      1.45410112	      4.87453739	     -8.76596285	      0.00000000	      0.00000000	     48.47328583	     -6.61227264	      1.87838327	     71.32673142	      1.24488631	      3.77805932	     -6.54679187	      0.00000000	      0.00000000	    -60.76745109	      1.30147344	      1.09811529	     89.68648576	     -7.18821969	     31.97211301	     47.99589363	     28.46791079	      0.00000000	      0.00000000	     89.59099358	    -10.46051130	     30.35430208	     47.54991164	     29.13028736	      0.00000000	      0.00000000
      0.03500000	    -12.62300891	     -1.50135011	     -0.64410029	      0.05284065	      1.15102834	     -0.22894747	      0.00000000	      0.50000000	      0.00000000	      0.25000000	     78.55514226	      0.15014414	      4.02049915	     83.23509674	      1.45272649	      5.03665455	     -8.97341441	      0.00000000	      0.00000000	     48.67113612	     -6.30407151	      1.37446753	     71.37812356	      1.24578327	      4.07872706	     -9.61185642	      0.00000000	      0.00000000	    -60.60894548	      1.26283894	      0.73080291	     89.68778575	     -7.67016430	     31.91371996	     47.89171042	     28.39510359	      0.00000000	      0.00000000	     89.60760273	     -9.98999803	     30.67297513	     47.50928183	     29.16503474	      0.00000000	      0.00000000
      0.04000000	    -12.47855852	     -1.55214568	     -0.61161896	      0.05285506	      1.15138143	     -0.22898139	      0.00000000	      0.50000000	      0.00000000	      0.25000000	     78.37251058	      0.12057066	      3.93917032	     83.22504423	      1.45255104	      5.11563349	     -8.99379547	      0.00000000	      0.00000000	     48.50681957	     -6.34313600	      1.38855341	     71.34755919	      1.24524982	      4.12266976	     -9.65147119	      0.00000000	      0.00000000	    -60.85021651	      1.32992514	      0.74642030	     89.68569419	     -7.63225999	     31.49536062	     48.08454288	     29.37274646	      0.00000000	      0.00000000	     89.59918989	     -9.94347979	     30.05978287	     47.62295724	     30.07858392	      0.00000000	      0.00000000
      0.04500000	    -12.47375145	     -1.46304825	     -0.71249487	      0.05286939	      1.15146409	     -0.22881892	      0.00000000	      0.50000000	      0.00000000	      0.25000000	     78.38432948	      0.19677264	      4.04125574	     83.20918839	      1.45227431	      4.98387594	     -9.12264496	      0.00000000	      0.00000000	     48.45727969	     -6.36485765	      1.23235312	     71.29924737	      1.24440662	      4.02126934	     -9.63530137	      0.00000000	      0.00000000	    -60.83140999	      1.17753387	      0.74829449	     89.68662552	     -7.52005346	     31.19025798	     47.64651363	     30.38652928	      0.00000000	      0.00000000	     89.60661782	     -9.74771119	     29.71733128	     47.16946412	     30.99079264	      0.00000000	      0.00000000
      0.05000000	    -12.58041681	     -1.45618702	     -0.63031734	      0.05287015	      1.15121450	     -0.22899379	      0.00000000	      0.50000000	      0.00000000	      0.25000000	     78.51757534	      0.07151084	      4.02621799	     83.28647448	      1.45362320	      5.13273040	     -8.77336556	      0.00000000	      0.00000000	     48.60272293	     -6.26888247	      1.32126863	     71.31549237	      1.24469015	      4.02160328	     -9.61633600	      0.00000000	      0.00000000	    -60.65562505	      1.26046637	      0.69681580	     89.68885979	     -7.61132000	     31.61524523	     47.40795929	     30.74975651	      0.00000000	      0.00000000	     89.61275951	     -9.84397260	     30.15609413	     46.86208164	     31.40107169	      0.00000000	      0.00000000
      0.05500000	    -12.50098939	     -1.51575488	     -0.62029007	      0.05283955	      1.15142289	     -0.22896402	      0.00000000	      0.50000000	      0.00000000	      0.25000000	     78.40984583	      0.09686452	      3.96963671	     83.26150355	      1.45318738	      5.20774892	     -8.93121594	      0.00000000	      0.00000000	     48.51931966	     -6.32700054	      1.35480259	     71.29379756	      1.24431150	      3.98584539	     -9.59999110	      0.00000000	      0.00000000	    -60.79552851	      1.29239957	      0.74031995	     89.68865691	     -7.59827575	     31.38889891	     47.54142712	     31.22449468	      0.00000000	      0.00000000	     89.60978698	     -9.85257717	     29.90793356	     47.03504138	     31.88222937	      0.00000000	      0.00000000
